<svg width="17" height="17" viewBox="0 0 17 17" fill="none" xmlns="http://www.w3.org/2000/svg">
<g clip-path="url(#clip0_50_467)">
<path fill-rule="evenodd" clip-rule="evenodd" d="M4.25 0C3.68642 0 3.14591 0.223883 2.7474 0.622398C2.34888 1.02091 2.125 1.56141 2.125 2.125V16.4688C2.12493 16.561 2.14889 16.6517 2.19451 16.7319C2.24014 16.812 2.30586 16.879 2.3852 16.926C2.46454 16.9731 2.55477 16.9987 2.64701 17.0003C2.73925 17.0019 2.83032 16.9795 2.91125 16.9352L8.5 13.8858L14.0887 16.9352C14.1697 16.9795 14.2607 17.0019 14.353 17.0003C14.4452 16.9987 14.5355 16.9731 14.6148 16.926C14.6941 16.879 14.7599 16.812 14.8055 16.7319C14.8511 16.6517 14.8751 16.561 14.875 16.4688V2.125C14.875 1.56141 14.6511 1.02091 14.2526 0.622398C13.8541 0.223883 13.3136 0 12.75 0L4.25 0ZM9.03125 4.78125C9.03125 4.64035 8.97528 4.50523 8.87565 4.4056C8.77602 4.30597 8.6409 4.25 8.5 4.25C8.3591 4.25 8.22398 4.30597 8.12435 4.4056C8.02472 4.50523 7.96875 4.64035 7.96875 4.78125V6.375H6.375C6.2341 6.375 6.09898 6.43097 5.99935 6.5306C5.89972 6.63023 5.84375 6.76535 5.84375 6.90625C5.84375 7.04715 5.89972 7.18227 5.99935 7.2819C6.09898 7.38153 6.2341 7.4375 6.375 7.4375H7.96875V9.03125C7.96875 9.17215 8.02472 9.30727 8.12435 9.4069C8.22398 9.50653 8.3591 9.5625 8.5 9.5625C8.6409 9.5625 8.77602 9.50653 8.87565 9.4069C8.97528 9.30727 9.03125 9.17215 9.03125 9.03125V7.4375H10.625C10.7659 7.4375 10.901 7.38153 11.0007 7.2819C11.1003 7.18227 11.1562 7.04715 11.1562 6.90625C11.1562 6.76535 11.1003 6.63023 11.0007 6.5306C10.901 6.43097 10.7659 6.375 10.625 6.375H9.03125V4.78125Z" fill="white"/>
</g>
<defs>
<clipPath id="clip0_50_467">
<rect width="17" height="17" fill="white"/>
</clipPath>
</defs>
</svg>
